<svg xmlns="http://www.w3.org/2000/svg" width="25" height="20" fill="none"><path fill="#FF6B08" d="m22.22.905.622.966c-4.278 2.806-6.417 5.612-6.417 8.418 0 1.426.62 2.254 1.863 2.484l2.898-2.691c.92.322 1.748.92 2.484 1.794.782.828 1.173 1.909 1.173 3.243 0 1.334-.53 2.484-1.587 3.45-1.058.92-2.461 1.38-4.21 1.38-1.701 0-3.127-.575-4.277-1.725-1.104-1.196-1.656-2.829-1.656-4.899 0-4.508 3.036-8.648 9.108-12.42ZM9.25.905l.62.966c-4.277 2.806-6.416 5.612-6.416 8.418 0 1.426.62 2.254 1.863 2.484l2.898-2.691c.92.322 1.748.92 2.484 1.794.782.828 1.173 1.909 1.173 3.243 0 1.334-.53 2.484-1.587 3.45-1.058.92-2.461 1.38-4.21 1.38-1.701 0-3.127-.575-4.277-1.725C.693 17.028.14 15.395.14 13.325c0-4.508 3.036-8.648 9.108-12.42Z"/></svg>